<?xml version="1.0" ?><!DOCTYPE svg  PUBLIC '-//W3C//DTD SVG 1.1//EN'
  'http://www.w3.org/Graphics/SVG/1.1/DTD/svg11.dtd'>
<svg height="512px" style="enable-background:new 0 0 512 512;" version="1.1" viewBox="0 0 512 512"
  width="512px" xml:space="preserve" xmlns="http://www.w3.org/2000/svg"><g id="_x36_33_x2C__Bakery_x2C__cake_x2C__cup_x2C__dessert"><g><path d="M74.779,165.39c7.5,0,13.591,6.08,13.591,13.59c0,7.51-6.091,13.59-13.591,13.59    c-7.51,0-13.6-6.08-13.6-13.59C61.18,171.47,67.27,165.39,74.779,165.39z" style="fill:#EF3E5C;"/><path
  d="M66.18,188.438c0-7.51,6.09-13.59,13.6-13.59c3.233,0,6.2,1.134,8.534,3.021    c-0.566-6.988-6.408-12.479-13.534-12.479c-7.51,0-13.6,6.08-13.6,13.59c0,4.272,1.975,8.077,5.057,10.567    C66.206,189.181,66.18,188.813,66.18,188.438z"
  style="fill:#E42A53;" /><path
  d="M124.609,56.65c10.011,0,18.12,8.12,18.12,18.12c0,10.01-8.109,18.13-18.12,18.13    c-10.01,0-18.119-8.12-18.119-18.13C106.49,64.77,114.6,56.65,124.609,56.65z"
  style="fill:#EF3E5C;" /><path
  d="M111.49,83.969c0-10,8.109-18.12,18.119-18.12c4.973,0,9.473,2.006,12.746,5.249    c-1.698-8.242-8.995-14.447-17.746-14.447c-10.01,0-18.119,8.12-18.119,18.12c0,5.039,2.058,9.596,5.376,12.882    C111.62,86.462,111.49,85.231,111.49,83.969z"
  style="fill:#E42A53;" /><path
  d="M437.22,192.57c7.511,0,13.601,6.09,13.601,13.59c0,7.51-6.09,13.59-13.601,13.59    c-7.5,0-13.59-6.08-13.59-13.59C423.63,198.66,429.72,192.57,437.22,192.57z"
  style="fill:#EF3E5C;" /><path
  d="M440.22,202.069c4.26,0,8.06,1.962,10.554,5.026c0.021-0.31,0.047-0.619,0.047-0.935    c0-7.5-6.09-13.59-13.601-13.59c-7.5,0-13.59,6.09-13.59,13.59c0,3.251,1.145,6.231,3.047,8.569    C427.157,207.664,433.033,202.069,440.22,202.069z"
  style="fill:#E42A53;" /><path
  d="M337.59,96.56c5.29,5.3,6.01,13.2,1.601,17.61c-4.49,4.49-12.021,5.97-20.87,6.11    c-6.92,0.11-14.66-0.6-22.4-1.31c-0.7-7.73-1.4-15.46-1.29-22.38c0.15-8.85,1.62-16.37,6.12-20.86c4.41-4.42,12.31-3.7,17.6,1.6    c4.811,4.8,5.21,9.2,3.61,15.61C328.36,91.34,332.79,91.76,337.59,96.56z"
  style="fill:#EF3E5C;" /><g><g><g><path d="M303.256,105.256c0.15-8.85,1.62-16.37,6.12-20.86c3.164-3.171,8.122-3.683,12.626-1.77       c-0.694-1.792-1.869-3.518-3.652-5.297c-5.29-5.3-13.189-6.02-17.6-1.6c-4.5,4.49-5.97,12.01-6.12,20.86       c-0.11,6.92,0.59,14.65,1.29,22.38c2.657,0.244,5.313,0.485,7.937,0.696C303.461,114.667,303.184,109.787,303.256,105.256z" style="fill:#E42A53;"/></g></g></g><path
  d="M295.92,118.97c7.74,0.71,15.48,1.42,22.4,1.31c6.689,15.53,4.279,34.05-7.23,47.44    c-0.74,0.86-1.52,1.7-2.34,2.52c-17.69,17.69-46.38,17.69-64.07,0c-11.99-11.99-15.85-29.02-11.59-44.26    c2.03-7.25,5.88-14.11,11.59-19.81c13.5-13.51,33.42-16.69,49.95-9.58C294.52,103.51,295.22,111.24,295.92,118.97z"
  style="fill:#F7B64C;" /><g><path d="M241.757,132.98c2.03-7.25,5.88-14.11,11.59-19.81c11.216-11.225,26.862-15.311,41.315-12.297     c-0.036-1.454-0.055-2.888-0.032-4.283c-16.53-7.11-36.45-3.93-49.95,9.58c-5.71,5.7-9.56,12.56-11.59,19.81     c-4.26,15.24-0.4,32.27,11.59,44.26c2.521,2.521,5.271,4.669,8.174,6.471C241.265,164.752,237.558,148.001,241.757,132.98z" style="fill:#DB993A;"/></g><path
  d="M387.39,391.92l-18.12,31.709C358.06,443.24,337.2,455.35,314.61,455.35h-144.4    c-22.601,0-43.45-12.109-54.66-31.721L97.43,391.92h57.7l5.729,27.18h63.431h36.24h63.43l5.72-27.18H387.39z"
  style="fill:#924B35;" /><g><path d="M327.729,450.814h-144.4c-22.601,0-43.45-12.109-54.66-31.721l-15.528-27.174H97.43l18.12,31.709     c11.21,19.611,32.06,31.721,54.66,31.721h144.4c9.498,0,18.687-2.148,26.984-6.088     C337.097,450.279,332.452,450.814,327.729,450.814z" style="fill:#7F3C2A;"/></g><path
  d="M287.71,276.99c9.74,14.65,26.4,24.32,45.31,24.32c5.66,0,11.131-0.871,16.261-2.48l-19.601,93.09    l-5.72,27.18h-63.43L287.71,276.99z"
  style="fill:#FFC592;" /><g><path d="M342.687,306.396c1.703,0,3.387-0.088,5.052-0.242l1.542-7.324     c-5.13,1.609-10.601,2.48-16.261,2.48c-7.147,0-13.971-1.387-20.224-3.896C321.376,303.08,331.641,306.396,342.687,306.396z" style="fill:#EAAC7D;"/>
  <path
    d="M296.412,287.119c-3.296-3.004-6.225-6.402-8.702-10.129L260.53,419.1h10.64L296.412,287.119z"
    style="fill:#EAAC7D;" /></g><path
  d="M242.41,301.311c18.91,0,35.57-9.67,45.3-24.32L260.53,419.1h-36.24L197.1,276.99    C206.84,291.641,223.49,301.311,242.41,301.311z"
  style="fill:#EFA873;" /><g><path d="M210.535,290.975c-5.269-3.82-9.828-8.559-13.436-13.984L224.29,419.1h10.759L210.535,290.975z" style="fill:#D89261;"/>
  <path
    d="M253.743,304.311c11.329,0,21.836-3.49,30.544-9.424l3.423-17.896     c-9.729,14.65-26.39,24.32-45.3,24.32c-2.803,0-5.548-0.236-8.235-0.646C240.247,303.01,246.841,304.311,253.743,304.311z"
    style="fill:#D89261;" /></g><path
  d="M135.54,298.83c5.13,1.609,10.59,2.48,16.26,2.48c18.91,0,35.56-9.67,45.3-24.32L224.29,419.1    h-63.431l-5.729-27.18L135.54,298.83z"
  style="fill:#FFC592;" /><path
  d="M167.32,394.92l-19.59-93.09c5.13,1.609,10.59,2.48,16.26,2.48    c13.701,0,26.201-5.096,35.761-13.465L197.1,276.99c-9.74,14.65-26.39,24.32-45.3,24.32c-5.67,0-11.13-0.871-16.26-2.48    l19.59,93.09l5.729,27.18h11.559L167.32,394.92z"
  style="fill:#EAAC7D;" /><path
  d="M244.68,170.24c17.69,17.69,46.38,17.69,64.07,0c0.82-0.82,1.6-1.66,2.34-2.52    c5.351,4.45,9.771,9.59,12.87,15.79c1.5,3.01-0.21,6.68-0.6,9.93c3.13-0.56,6.359-0.87,9.659-0.87    c30.03,0,54.37,24.34,54.37,54.37c0,24.361-16.029,44.98-38.109,51.89c-5.13,1.609-10.601,2.48-16.261,2.48    c-18.909,0-35.569-9.67-45.31-24.32c-9.729,14.65-26.39,24.32-45.3,24.32c-18.92,0-35.57-9.67-45.311-24.32    c-9.74,14.65-26.39,24.32-45.3,24.32c-5.67,0-11.13-0.871-16.26-2.48c-22.09-6.91-38.11-27.529-38.11-51.89    c0-30.03,24.34-54.37,54.37-54.37c3.3,0,6.52,0.31,9.66,0.87c-0.4-3.25-0.601-6.57-0.601-9.93c0-34.99,22.04-64.83,52.99-76.41    c5.36,7.54,11.95,13.67,19.24,18.88C228.83,141.22,232.689,158.25,244.68,170.24z"
  style="fill:#FFECB2;" /><g><path d="M106.49,258.395c0-30.031,24.34-54.371,54.369-54.371c3.301,0,6.521,0.31,9.66,0.87     c-0.399-3.25-0.6-6.57-0.6-9.93c0-34.99,22.04-64.83,52.99-76.41c2.814,3.96,5.976,7.522,9.393,10.775     c0.224-1.124,0.478-2.242,0.787-3.349c-7.29-5.21-13.88-11.34-19.24-18.88c-30.95,11.58-52.99,41.42-52.99,76.41     c0,3.36,0.2,6.68,0.601,9.93c-3.141-0.56-6.36-0.87-9.66-0.87c-30.03,0-54.37,24.34-54.37,54.37     c0,15.367,6.379,29.238,16.629,39.126C109.255,277.959,106.49,268.5,106.49,258.395z" style="fill:#EFD99C;"/></g><path
  d="M333.02,246.94c5,0,9.061,4.05,9.061,9.06c0,5-4.061,9.061-9.061,9.061S323.96,261,323.96,256    C323.96,250.99,328.02,246.94,333.02,246.94z"
  style="fill:#EFD99C;" /><path
  d="M233.35,256c5,0,9.061,4.061,9.061,9.061s-4.061,9.059-9.061,9.059c-5.01,0-9.06-4.059-9.06-9.059    S228.34,256,233.35,256z"
  style="fill:#EFD99C;" /><path
  d="M188.04,219.75c5,0,9.06,4.06,9.06,9.07c0,5-4.06,9.06-9.06,9.06s-9.061-4.06-9.061-9.06    C178.979,223.81,183.04,219.75,188.04,219.75z"
  style="fill:#EFD99C;" /><path
  d="M142.729,237.88c5.011,0,9.07,4.05,9.07,9.06c0,5-4.06,9.06-9.07,9.06c-5,0-9.06-4.06-9.06-9.06    C133.67,241.93,137.729,237.88,142.729,237.88z"
  style="fill:#EFD99C;" /><path
  d="M274.117,212.307c-0.953,0-1.916-0.272-2.769-0.84l-27.181-18.12    c-24.691-16.461-49.779-8.554-50.03-8.472c-2.62,0.853-5.444-0.568-6.308-3.185c-0.862-2.617,0.547-5.437,3.161-6.308    c1.205-0.4,29.842-9.611,58.724,9.644l27.181,18.12c2.298,1.532,2.919,4.636,1.387,6.934    C277.319,211.525,275.733,212.307,274.117,212.307z"
  style="fill:#EFD99C;" /></g></g>
  <g id="Layer_1" /></svg>
